<svg width="54" height="50" viewBox="0 0 54 50" fill="none" xmlns="http://www.w3.org/2000/svg">
<g id="Group">
<path id="Vector" d="M48.7543 31.2487C48.4474 31.2487 48.1405 31.1092 47.9451 30.8302L44.7083 26.6446C44.3734 26.1982 44.4572 25.5285 44.9036 25.1936C45.3501 24.8588 46.0198 24.9425 46.3546 25.389L49.5914 29.5745C49.9263 30.021 49.8426 30.6906 49.3961 31.0255C49.2008 31.165 48.9776 31.2487 48.7543 31.2487Z" fill="#8A9599"/>
<path id="Vector_2" d="M48.7543 31.2487C48.4474 31.2487 48.1404 31.1092 47.9451 30.8302C47.6103 30.3837 47.694 29.714 48.1404 29.3792L52.326 26.1424C52.7724 25.8075 53.4421 25.8912 53.777 26.3377C54.1118 26.7841 54.0281 27.4538 53.5816 27.7887L49.3961 31.0255C49.2008 31.165 48.9775 31.2487 48.7543 31.2487Z" fill="#8A9599"/>
<path id="Vector_3" d="M25.3151 49.9441C17.1672 49.9441 9.38208 45.8701 4.80587 39.1174C1.01098 33.6483 -0.412101 27.0351 0.787757 20.4778C1.98761 13.8925 5.69879 8.20018 11.2237 4.40528C16.7207 0.638285 23.3618 -0.784803 29.9192 0.415054C36.4765 1.61491 42.1689 5.3261 45.9638 10.8231C49.8982 16.5434 51.2934 23.6867 49.7866 30.4394C49.6471 30.9975 49.1169 31.3323 48.5588 31.2207C48.0007 31.1091 47.638 30.551 47.7775 29.9929C49.1727 23.7983 47.8891 17.241 44.2896 11.9951C40.8295 6.94451 35.6115 3.56817 29.5843 2.45202C23.585 1.33588 17.4741 2.64735 12.4236 6.1074C7.37301 9.59536 3.96876 14.8133 2.85262 20.8684C1.73647 26.8677 3.04795 32.9507 6.5359 37.9734C10.9168 44.447 18.4787 48.214 26.3196 47.8792C26.9893 47.8234 27.3799 48.2977 27.4078 48.8558C27.4357 49.4139 26.9893 49.9161 26.4312 49.9441C26.0406 49.9441 25.6778 49.9441 25.3151 49.9441Z" fill="#8A9599"/>
<path id="Vector_4" d="M18.4508 31.4999C18.1438 31.4999 17.8369 31.3604 17.6416 31.1092C17.2788 30.6628 17.3625 30.021 17.809 29.6582L24.3664 24.4961V12.637C24.3664 12.0789 24.8407 11.6046 25.3988 11.6046C25.9568 11.6046 26.4312 12.0789 26.4312 12.637V24.9704C26.4312 25.2774 26.2917 25.5843 26.0406 25.7796L19.0926 31.2766C18.8972 31.4162 18.674 31.4999 18.4508 31.4999Z" fill="#8A9599"/>
<path id="Vector_5" d="M32.57 50C32.2631 50 31.9561 49.8605 31.7329 49.5815C31.398 49.135 31.4817 48.4653 31.9561 48.1305L38.4019 43.331C39.239 42.7451 39.6854 41.9359 39.6854 41.0429C39.6854 39.5362 38.2903 38.2526 36.6439 38.2526C34.9976 38.2526 33.6024 39.5362 33.6024 41.0429C33.6024 41.601 33.1281 42.0754 32.57 42.0754C31.984 42.0754 31.5376 41.601 31.5376 41.0429C31.5376 38.3642 33.8257 36.1877 36.6439 36.1877C39.4622 36.1877 41.7503 38.3642 41.7503 41.0429C41.7503 42.5777 40.969 44.0286 39.6017 45.0053L33.1839 49.8047C32.9885 49.9163 32.7932 50 32.57 50Z" fill="#8A9599"/>
<path id="Vector_6" d="M40.7179 49.9997H32.57C31.9841 49.9997 31.5376 49.5254 31.5376 48.9673C31.5376 48.4092 32.012 47.9348 32.57 47.9348H40.7179C41.3039 47.9348 41.7503 48.4092 41.7503 48.9673C41.7503 49.5254 41.3039 49.9997 40.7179 49.9997Z" fill="#8A9599"/>
<path id="Vector_7" d="M51.377 50C50.791 50 50.3446 49.5256 50.3446 48.9676V46.8469H43.9546C43.564 46.8469 43.1733 46.6237 43.0059 46.233C42.8385 45.8703 42.8943 45.4238 43.1733 45.1169L50.5957 36.5504C50.8748 36.2156 51.3491 36.104 51.7398 36.2714C52.1583 36.4109 52.4095 36.8016 52.4095 37.248V44.782H52.9675C53.5535 44.782 54 45.2564 54 45.8145C54 46.3725 53.5256 46.8469 52.9675 46.8469H52.4095V48.9676C52.4095 49.5256 51.9351 50 51.377 50ZM46.2148 44.7541H50.3446V39.9826L46.2148 44.7541Z" fill="#8A9599"/>
</g>
</svg>
