<svg width="55" height="60" viewBox="0 0 55 60" fill="none" xmlns="http://www.w3.org/2000/svg">
<path d="M53.6171 39.254C54.0927 38.6633 54.3895 37.9235 54.3895 37.1071C54.3895 35.2712 52.9427 33.7789 51.131 33.6809C51.4888 33.2379 51.7741 32.7338 51.963 32.1815C52.3989 30.9022 52.2626 29.5178 51.5853 28.3819L51.5328 28.2967C50.8555 27.2162 49.5748 26.6951 48.3339 26.935V20.7514C48.3339 19.0475 46.9481 17.6617 45.2443 17.6617H35.987C35.9842 17.152 35.9771 16.6621 35.9601 16.2205C35.7215 10.3124 34.0546 5.93058 31.1383 3.54516C29.0384 1.82851 26.3634 1.18246 23.1944 1.61979C19.2813 -0.525664 14.674 -0.544122 10.795 1.58997C5.99737 4.22955 3.10375 9.56691 2.85812 16.2361C2.67638 21.166 3.47717 29.062 4.06214 34.8268L4.28221 37.0219C4.31061 37.3045 4.45543 37.5601 4.68402 37.729C4.85724 37.8568 5.06596 37.925 5.27751 37.925C5.34424 37.925 5.41098 37.9179 5.47771 37.9051C8.39546 37.3073 11.37 36.9126 14.3403 36.7024C13.6361 37.8298 12.5825 38.7627 11.255 39.3434C8.69221 40.4637 4.30635 42.5765 3.07819 43.4696C0.0866095 45.6463 0 52.5527 0 53.3336C0 53.8859 0.447247 54.3332 0.999561 54.3332C1.55188 54.3332 1.99912 53.8859 1.99912 53.3336C2.00054 50.7778 2.61533 46.2782 4.25381 45.0869C5.10287 44.4692 8.4125 42.8193 11.069 41.6153C14.1969 43.6074 17.3802 44.1569 19.9046 44.1569C20.6727 44.1569 21.3699 44.1043 21.996 44.0305V56.9103C21.996 58.6142 23.3818 60 25.0856 60H45.2429C46.9467 60 48.3325 58.6142 48.3325 56.9103V55.2221H49.7211C51.6208 55.2221 53.1656 53.6772 53.1656 51.7774C53.1656 51.1725 52.9952 50.6103 52.7197 50.1161C54.0445 49.6362 55 48.3768 55 46.8887C55 45.9331 54.6081 45.0684 53.9777 44.4437C54.6081 43.8189 55 42.9542 55 41.9986C55 40.8727 54.4519 39.883 53.6171 39.254ZM48.3325 29.0066C48.3893 28.9953 48.4446 28.9811 48.5 28.9584C48.9941 28.7624 49.5706 28.9356 49.8659 29.4085C50.245 30.0446 50.3174 30.8 50.0661 31.5355C49.7892 32.3462 49.1744 32.9908 48.3793 33.3046L48.3311 33.3231V29.0066H48.3325ZM50.945 35.6631C51.7415 35.6631 52.3889 36.3105 52.3889 37.1085C52.3889 37.9051 51.7415 38.5526 50.945 38.5526H46.0551C45.2585 38.5526 44.6111 37.9051 44.6111 37.1085C44.6111 36.312 45.2585 35.6631 46.0551 35.6631H50.945ZM6.16065 35.7298L6.0499 34.6237C5.50327 29.2381 4.67692 21.1007 4.8544 16.3086C5.07448 10.3606 7.589 5.63382 11.7562 3.34212C15.1169 1.49342 19.1308 1.56158 22.4958 3.52386C22.696 3.64029 22.9289 3.68289 23.1589 3.64739C25.8991 3.20581 28.1567 3.69141 29.8704 5.09426C32.9798 7.63587 33.8104 12.5913 33.9595 16.3015C33.9766 16.7175 33.9837 17.1804 33.9865 17.6617H31.2917C31.3172 16.9972 31.3314 16.2447 31.3328 15.752C31.7716 15.566 32.0271 15.0874 31.915 14.6061C31.79 14.0694 31.2562 13.7343 30.7138 13.8607C29.186 14.2185 27.3545 13.6548 25.8154 12.3556C24.6128 11.3389 24.0789 10.2811 24.0605 9.8012C24.0619 9.76002 24.0633 9.72026 24.0633 9.67909C24.0633 9.13811 23.6345 8.69652 23.095 8.67949C23.0836 8.67949 23.0737 8.67949 23.0637 8.67949C22.5384 8.67949 22.0983 9.08841 22.067 9.61803C22.0642 9.66347 22.0628 9.70891 22.0628 9.75576C22.0202 10.3166 21.5218 11.0663 20.7097 11.7819C18.5487 13.6874 13.8945 15.6455 7.89852 14.8858C7.34195 14.8177 6.84927 15.2039 6.78111 15.7534C6.71154 16.3015 7.10058 16.8013 7.64721 16.8708C7.86019 16.8978 8.06464 16.9092 8.27336 16.9305C8.40966 23.0928 10.6587 29.4752 15.3313 31.9643C15.3271 32.5734 15.3157 33.1669 15.2916 33.7235C15.2774 34.033 15.239 34.3383 15.1794 34.6379C12.1609 34.8069 9.13519 35.1704 6.16065 35.7298ZM21.996 42.0157C19.8691 42.2982 16.5694 42.2883 13.2271 40.556C15.638 39.0637 17.1615 36.5789 17.2864 33.8115C17.3021 33.4637 17.3134 33.1044 17.3219 32.7353C18.0957 32.9355 18.9192 33.0476 19.7981 33.0476C20.5549 33.0476 21.2889 32.9596 21.996 32.8006V42.0157ZM21.996 20.7514V30.7375C21.3031 30.9391 20.5677 31.047 19.7981 31.047C13.4671 31.047 10.4684 23.9192 10.2739 17.0412C10.3449 17.0412 10.4201 17.0483 10.4911 17.0483C15.7914 17.0483 19.9202 15.14 22.0301 13.2799C22.4106 12.9448 22.7386 12.6041 23.0155 12.259C23.4542 12.8724 23.9937 13.4319 24.5247 13.8805C26.0099 15.1357 27.691 15.84 29.3309 15.9451C29.3266 16.4434 29.3124 17.1037 29.2897 17.6603H25.0856C23.3818 17.6617 21.996 19.0475 21.996 20.7514ZM46.3334 56.9089C46.3334 57.5095 45.8449 57.998 45.2443 57.998H25.0856C24.485 57.998 23.9951 57.5095 23.9951 56.9089V42.9159C23.9966 42.8932 23.9951 42.869 23.9951 42.8463V20.7514C23.9951 20.1508 24.4836 19.6623 25.0856 19.6623H45.2429C45.8435 19.6623 46.3319 20.1508 46.3319 20.7514V33.6624H46.0536C44.1539 33.6624 42.6091 35.2087 42.6091 37.1071C42.6091 37.9221 42.9059 38.6633 43.3815 39.254C42.5467 39.883 41.9986 40.8727 41.9986 41.9972C41.9986 42.9528 42.3905 43.8175 43.0209 44.4423C42.3905 45.067 41.9986 45.9317 41.9986 46.8873C41.9986 48.0104 42.5467 49.0015 43.3829 49.6305C42.9073 50.2212 42.6106 50.9624 42.6106 51.7774C42.6106 53.6772 44.1553 55.2221 46.0551 55.2221H46.3334V56.9089ZM49.7225 53.22H46.0551C45.2585 53.22 44.6111 52.5725 44.6111 51.776C44.6111 50.9794 45.2585 50.3305 46.0551 50.3305H49.7225C50.519 50.3305 51.1679 50.978 51.1679 51.776C51.1665 52.5711 50.519 53.22 49.7225 53.22ZM51.5555 48.3299H49.7225H46.0551H45.4445C44.648 48.3299 43.9991 47.6824 43.9991 46.8845C43.9991 46.0879 44.6466 45.4404 45.4445 45.4404H51.5555C52.352 45.4404 53.0009 46.0879 53.0009 46.8845C52.9995 47.6824 52.352 48.3299 51.5555 48.3299ZM51.5555 43.4412H45.4445C44.648 43.4412 43.9991 42.7938 43.9991 41.9958C43.9991 41.1992 44.6466 40.5503 45.4445 40.5503H46.0551H50.945H51.5555C52.352 40.5503 53.0009 41.1978 53.0009 41.9958C52.9995 42.7938 52.352 43.4412 51.5555 43.4412Z" fill="#8A9599"/>
</svg>
