<svg width="62" height="72" viewBox="0 0 62 72" fill="none" xmlns="http://www.w3.org/2000/svg">
<path fill-rule="evenodd" clip-rule="evenodd" d="M0 8.74104L0.0742995 71.9664L37.0909 72L37.0864 68.0818L12.0095 68.1109L11.9398 8.72726L0 8.74104Z" fill="#CF0C2D"/>
<path fill-rule="evenodd" clip-rule="evenodd" d="M61.0602 18.2283L61.0909 44.9753C61.1083 60.1388 53.1129 63.221 39.1165 63.2551L24.0725 63.2727L24.0081 6.87296L35.8914 6.85896L35.9515 59.407L38.9902 59.4034C45.0399 59.3857 49.2621 56.2162 49.2521 47.5052L49.2158 15.7224C49.2058 7.00781 44.9798 3.84835 38.9267 3.85535L24.0045 3.873L24 0.0176572L39.0443 1.44685e-06C53.0404 -0.00243383 61.0428 3.06814 61.0602 18.2283Z" fill="#CF0C2D"/>
</svg>
