<svg width="58" height="61" viewBox="0 0 58 61" fill="none" xmlns="http://www.w3.org/2000/svg">
<g id="Group 1321315631">
<g id="Group 514857">
<path id="Vector" d="M33.2015 36.0415L36.6535 52.219C36.7958 52.8894 36.6653 53.5887 36.2906 54.1634C35.9159 54.738 35.3276 55.141 34.655 55.2838L13.0344 59.784C12.3616 59.9258 11.6598 59.7957 11.0831 59.4223C10.5064 59.049 10.1021 58.4628 9.95878 57.7925L1.0562 16.0491C0.913876 15.3787 1.0444 14.6793 1.41911 14.1047C1.79383 13.53 2.3821 13.1271 3.05473 12.9843L15.5651 10.3333" stroke="#8A9599" stroke-width="2" stroke-miterlimit="10" stroke-linecap="round" stroke-linejoin="round"/>
<path id="Vector_2" d="M8.71008 52.5358L35.4924 46.8547" stroke="#8A9599" stroke-width="2" stroke-miterlimit="10" stroke-linecap="round" stroke-linejoin="round"/>
<path id="Vector_3" d="M1.40613 18.4485L15.2031 15.608" stroke="#8A9599" stroke-width="2" stroke-miterlimit="10" stroke-linecap="round" stroke-linejoin="round"/>
<path id="Vector_4" d="M20.8842 54.1584L24.9421 53.3468" stroke="#8A9599" stroke-width="2" stroke-miterlimit="10" stroke-linecap="round" stroke-linejoin="round"/>
<path id="Vector_5" d="M37.522 1C26.7701 1 18.0439 7.98753 18.0439 16.6146C18.0956 18.6437 18.5868 20.6373 19.4837 22.4572C20.3806 24.2771 21.6616 25.8799 23.2381 27.1544C23.0124 30.4881 22.4821 33.794 21.6539 37.0307C21.2773 38.2668 22.2122 39.1517 23.2641 38.5401C26.5182 36.4658 29.6327 34.1794 32.5875 31.6957C34.2096 32.0436 35.8632 32.2224 37.522 32.2292C48.2738 32.2292 57 25.2417 57 16.6146C57 7.98753 48.2738 1 37.522 1Z" stroke="#8A9599" stroke-width="2" stroke-miterlimit="10" stroke-linecap="round" stroke-linejoin="round"/>
</g>
<g id="500">
<path id="Vector_6" d="M49.9045 15.6651V17.4387C49.9045 18.2882 49.8201 19.0136 49.6512 19.6147C49.4872 20.2109 49.2487 20.6953 48.9358 21.0679C48.6228 21.4405 48.2477 21.7137 47.8105 21.8876C47.3783 22.0615 46.8939 22.1484 46.3573 22.1484C45.93 22.1484 45.5326 22.0938 45.165 21.9845C44.8023 21.8752 44.4744 21.7038 44.1813 21.4703C43.8882 21.2368 43.6373 20.9362 43.4286 20.5686C43.2249 20.196 43.0659 19.7513 42.9517 19.2346C42.8424 18.718 42.7877 18.1193 42.7877 17.4387V15.6651C42.7877 14.8105 42.8722 14.0902 43.0411 13.5039C43.21 12.9127 43.451 12.4333 43.764 12.0657C44.0769 11.6931 44.4496 11.4223 44.8818 11.2534C45.319 11.0845 45.8058 11 46.3424 11C46.7746 11 47.1721 11.0546 47.5347 11.1639C47.9024 11.2683 48.2303 11.4347 48.5184 11.6632C48.8116 11.8918 49.06 12.1899 49.2637 12.5575C49.4723 12.9202 49.6313 13.3599 49.7406 13.8765C49.8499 14.3883 49.9045 14.9844 49.9045 15.6651ZM48.1086 17.692V15.3968C48.1086 14.9646 48.0837 14.5845 48.034 14.2566C47.9844 13.9237 47.9098 13.643 47.8105 13.4145C47.7161 13.181 47.5968 12.9922 47.4528 12.8481C47.3087 12.6991 47.1448 12.5923 46.9609 12.5277C46.7771 12.4581 46.5709 12.4234 46.3424 12.4234C46.0642 12.4234 45.8158 12.478 45.5972 12.5873C45.3786 12.6916 45.1948 12.8606 45.0457 13.0941C44.8967 13.3276 44.7824 13.6356 44.7029 14.0181C44.6284 14.3957 44.5911 14.8553 44.5911 15.3968V17.692C44.5911 18.1292 44.616 18.5143 44.6657 18.8471C44.7153 19.18 44.7899 19.4657 44.8892 19.7041C44.9886 19.9376 45.1078 20.1314 45.2469 20.2854C45.391 20.4344 45.555 20.5437 45.7388 20.6133C45.9276 20.6828 46.1337 20.7176 46.3573 20.7176C46.6405 20.7176 46.8914 20.663 47.11 20.5537C47.3286 20.4444 47.5124 20.2705 47.6614 20.032C47.8105 19.7886 47.9223 19.4731 47.9968 19.0856C48.0713 18.6981 48.1086 18.2336 48.1086 17.692Z" fill="#8A9599"/>
<path id="Vector_7" d="M40.9249 15.6651V17.4387C40.9249 18.2882 40.8405 19.0136 40.6715 19.6147C40.5076 20.2109 40.2691 20.6953 39.9561 21.0679C39.6432 21.4405 39.2681 21.7137 38.8309 21.8876C38.3986 22.0615 37.9142 22.1484 37.3777 22.1484C36.9504 22.1484 36.553 22.0938 36.1853 21.9845C35.8227 21.8752 35.4948 21.7038 35.2017 21.4703C34.9085 21.2368 34.6577 20.9362 34.449 20.5686C34.2453 20.196 34.0863 19.7513 33.9721 19.2346C33.8628 18.718 33.8081 18.1193 33.8081 17.4387V15.6651C33.8081 14.8105 33.8926 14.0902 34.0615 13.5039C34.2304 12.9127 34.4713 12.4333 34.7843 12.0657C35.0973 11.6931 35.4699 11.4223 35.9022 11.2534C36.3394 11.0845 36.8262 11 37.3628 11C37.795 11 38.1925 11.0546 38.5551 11.1639C38.9228 11.2683 39.2507 11.4347 39.5388 11.6632C39.8319 11.8918 40.0803 12.1899 40.284 12.5575C40.4927 12.9202 40.6517 13.3599 40.761 13.8765C40.8703 14.3883 40.9249 14.9844 40.9249 15.6651ZM39.129 17.692V15.3968C39.129 14.9646 39.1041 14.5845 39.0544 14.2566C39.0047 13.9237 38.9302 13.643 38.8309 13.4145C38.7365 13.181 38.6172 12.9922 38.4732 12.8481C38.3291 12.6991 38.1651 12.5923 37.9813 12.5277C37.7975 12.4581 37.5913 12.4234 37.3628 12.4234C37.0846 12.4234 36.8362 12.478 36.6176 12.5873C36.399 12.6916 36.2152 12.8606 36.0661 13.0941C35.9171 13.3276 35.8028 13.6356 35.7233 14.0181C35.6488 14.3957 35.6115 14.8553 35.6115 15.3968V17.692C35.6115 18.1292 35.6364 18.5143 35.6861 18.8471C35.7357 19.18 35.8103 19.4657 35.9096 19.7041C36.009 19.9376 36.1282 20.1314 36.2673 20.2854C36.4114 20.4344 36.5753 20.5437 36.7592 20.6133C36.948 20.6828 37.1541 20.7176 37.3777 20.7176C37.6609 20.7176 37.9118 20.663 38.1304 20.5537C38.349 20.4444 38.5328 20.2705 38.6818 20.032C38.8309 19.7886 38.9426 19.4731 39.0172 19.0856C39.0917 18.6981 39.129 18.2336 39.129 17.692Z" fill="#8A9599"/>
<path id="Vector_8" d="M26.7587 16.9543L25.3279 16.604L25.9166 11.149H31.7666V12.6693H27.407L27.109 15.3297C27.2779 15.2303 27.5114 15.1335 27.8095 15.0391C28.1076 14.9397 28.4479 14.89 28.8304 14.89C29.3421 14.89 29.7992 14.9745 30.2016 15.1434C30.609 15.3074 30.9543 15.5483 31.2375 15.8663C31.5206 16.1793 31.7368 16.5618 31.8858 17.0139C32.0348 17.461 32.1094 17.9653 32.1094 18.5267C32.1094 19.0285 32.0348 19.498 31.8858 19.9351C31.7417 20.3723 31.5231 20.7574 31.23 21.0902C30.9369 21.4231 30.5668 21.6839 30.1196 21.8727C29.6775 22.0565 29.1533 22.1484 28.5472 22.1484C28.0951 22.1484 27.6604 22.0839 27.2431 21.9547C26.8307 21.8205 26.4606 21.6243 26.1327 21.366C25.8048 21.1027 25.5415 20.7797 25.3428 20.3972C25.1441 20.0097 25.0298 19.565 25 19.0632H26.7587C26.8034 19.416 26.9003 19.7166 27.0493 19.965C27.2034 20.2084 27.407 20.3947 27.6604 20.5239C27.9138 20.653 28.2069 20.7176 28.5398 20.7176C28.8428 20.7176 29.1037 20.6655 29.3223 20.5611C29.5409 20.4518 29.7222 20.2978 29.8663 20.0991C30.0153 19.8954 30.1246 19.6569 30.1942 19.3837C30.2687 19.1104 30.3059 18.8074 30.3059 18.4745C30.3059 18.1566 30.2637 17.8659 30.1793 17.6026C30.0998 17.3393 29.978 17.1108 29.8141 16.917C29.6551 16.7233 29.4539 16.5742 29.2105 16.4699C28.967 16.3606 28.6863 16.3059 28.3684 16.3059C27.9411 16.3059 27.6132 16.368 27.3847 16.4922C27.1611 16.6165 26.9525 16.7705 26.7587 16.9543Z" fill="#8A9599"/>
</g>
</g>
</svg>
